<?xml version="1.0" encoding="utf-8"?>
<svg xmlns="http://www.w3.org/2000/svg" viewBox="90.199 512.21 224 128.3" width="224px" height="128.3px">
  <path d="M 147.999 586.01 L 160.009 586.01 L 148.509 568.19 C 154.449 566.25 157.449 561.94 157.449 556.89 C 157.449 550.2 152.519 545.05 142.319 545.05 L 126.039 545.05 L 126.039 586.01 L 136.089 586.01 L 136.089 569.51 L 138.409 569.51 L 147.999 586.01 Z M 141.449 552.05 C 145.759 552.05 147.649 554.36 147.649 557.24 C 147.649 560.13 146.119 562.6 141.239 562.6 L 136.089 562.6 L 136.089 552.05 L 141.449 552.05 Z M 314.199 512.21 L 314.199 619.61 L 143.999 619.61 L 106.149 640.51 L 109.619 619.61 L 90.199 619.61 L 90.199 512.21 L 314.199 512.21 Z M 180.029 586.01 L 188.249 586.01 L 188.249 556.78 L 188.409 556.78 L 199.229 586.01 L 205.759 586.01 L 216.469 556.89 L 216.629 556.89 L 216.629 586.01 L 226.009 586.01 L 226.009 545.05 L 211.989 545.05 L 202.929 571.5 L 202.819 571.5 L 193.699 545.05 L 180.029 545.05 L 180.029 586.01 Z M 252.829 584.58 L 263.189 584.58 L 263.189 568.83 L 267.499 568.83 C 277.699 568.83 283.539 563.78 283.539 556.12 C 283.539 548.67 277.809 544.26 268.689 544.26 L 252.829 544.26 L 252.829 584.58 Z M 267.289 550.58 C 271.599 550.58 273.439 553.49 273.439 556.32 C 273.439 558.74 272.069 561.88 267.289 561.88 L 263.189 561.88 L 263.189 550.58 L 267.289 550.58 Z" fill="#161616" style="stroke-width: 1;" transform="matrix(1, 0, 0, 1, 0, -2.842170943040401e-14)"/>
</svg>