<?xml version="1.0" encoding="utf-8"?>
<svg xmlns="http://www.w3.org/2000/svg" viewBox="125.3275 233.7674 206.76 206.76" width="206.76px" height="206.76px">
  <path id="logoMark_CompoundPathItem_" data-name="logoMark &lt;CompoundPathItem&gt;" class="cls-2" d="M105.72,3.55A103.38,103.38,0,1,0,209.1,106.92,103.37,103.37,0,0,0,105.72,3.55ZM47.27,126.12c1.59,1.88,4.16,2.78,7.94,2.78s6.34-.9,7.93-2.78,2.28-5,2.28-9.52V76.34H85.65V116.2c0,9.43-1,14-3.68,18.55-4.46,7.44-16.36,10.31-26.76,10.31s-22.32-2.87-26.78-10.31c-2.68-4.57-3.67-9.12-3.67-18.55V76.34H45V116.6C45,121.16,45.59,124.14,47.27,126.12Zm50.67,17.65V76.34h20.22v67.43ZM161.5,145C140.18,145,128,130.68,128,110.05s12.89-34.89,33.92-34.89c16.06,0,25.57,9.21,28.94,18l-17.54,8.43c-1.69-6.55-5.36-10.41-11.71-10.41-8.62,0-13,7.14-13,18.83s4.37,18.55,13,18.55c6,0,9.43-3.17,11.31-8.43l18.34,6.54C186.49,137.52,176.86,145,161.5,145Z" transform="matrix(1, 0, 0, 1, 122.98745369911194, 230.21739506721497)" style="fill: rgb(212, 31, 52);"/>
</svg>